# xmcd
# 
# Track frame offsets:
#     150
#     13890
#     35975
#     50542
#     67710
#     95695
#     110227
#     133795
#     149750
#     173550
# 
# Disc length: 2699
# 
# Revision: 0
# Processed by: cddbd v1.5.2PL0 Copyright (c) Steve Scherf et al.
# Submitted via: fre:ac v1.0.17
# 
DISCID=980a890a
DTITLE=Freddy James Rockin' 88 - Ain't No Money
DYEAR=1999
DGENRE=Blues
TTITLE0=It's a Party
TTITLE1=Pussycats and Squirrels
TTITLE2=88 Black and White
TTITLE3=Big BlockBoogie
TTITLE4=Blues for Sadie Jo
TTITLE5=Ain't No Money
TTITLE6=Bust Loose
TTITLE7=If You Want a Good Man
TTITLE8=Sadie Jo
TTITLE9=Steamroller (live)
EXTD=
EXTT0=
EXTT1=
EXTT2=
EXTT3=
EXTT4=
EXTT5=
EXTT6=
EXTT7=
EXTT8=
EXTT9=
PLAYORDER=
